<?xml version="1.0" encoding="UTF-8"?>
<!DOCTYPE svg PUBLIC "-//W3C//DTD SVG 1.1//EN" "http://www.w3.org/Graphics/SVG/1.1/DTD/svg11.dtd">
<!-- Creator: CorelDRAW 2020 (64-Bit) -->
<svg xmlns="http://www.w3.org/2000/svg" xml:space="preserve" width="45px" height="63px" version="1.1" shape-rendering="geometricPrecision" text-rendering="geometricPrecision" image-rendering="optimizeQuality" fill-rule="evenodd" clip-rule="evenodd"
viewBox="0 0 45 63.62"
 xmlns:xlink="http://www.w3.org/1999/xlink"
 xmlns:xodm="http://www.corel.com/coreldraw/odm/2003">
 <g id="Layer_x0020_1">
  <metadata id="CorelCorpID_0Corel-Layer"/>
  <g id="_1096110912">
   <path fill="black" fill-rule="nonzero" d="M10.59 0c2.27,0 4.55,0 6.82,0 0,0.96 0,1.91 0,2.86 -1.32,0 -2.65,-0.01 -3.97,0 -0.01,0.95 0,1.9 0,2.85 1.32,0.02 2.65,0.01 3.97,0.01 -0.01,0.95 0,1.91 0,2.86 -2.28,0 -4.55,0.02 -6.83,-0.01 0.01,-2.86 0,-5.71 0.01,-8.57zm16.37 0c2.28,0 4.55,0 6.83,0 -0.01,0.83 0,1.66 0,2.49 -1.33,-0.01 -2.65,0 -3.98,-0.01 0,0.17 0,0.34 0.01,0.5 1.32,0.01 2.65,0 3.97,0.01 -0.01,1.9 0,3.81 0,5.72 -2.28,-0.01 -4.55,0.01 -6.83,-0.01 0.01,-0.87 0,-1.74 0.01,-2.61 1.32,0 2.64,0 3.97,0 -0.01,-0.17 0,-0.33 0,-0.5 -1.32,0.02 -2.64,-0.01 -3.96,0.02 -0.03,-1.87 0,-3.74 -0.02,-5.61zm-8.18 0c2.27,0 4.54,0 6.82,0 0,0.83 0,1.66 0,2.49 -1.33,0 -2.65,-0.01 -3.97,0 0,0.16 0,0.33 -0.01,0.49 1.33,0.01 2.65,0 3.98,0.01 -0.01,1.9 0,3.81 0,5.72 -2.28,-0.01 -4.55,0.01 -6.83,-0.01 0.01,-0.87 0,-1.74 0.01,-2.61 1.32,0 2.64,0 3.97,0 0,-0.17 0,-0.33 0,-0.5 -1.32,0.02 -2.64,-0.01 -3.96,0.02 -0.04,-1.87 0,-3.74 -0.01,-5.61z"/>
   <g id="__x0023_264ce5ff">
    <g>
     <path fill="#264CE5" fill-rule="nonzero" d="M0 12.5c15,0 30,0 45,0 -1.37,15.34 -2.73,30.68 -4.1,46.02 -6.02,1.69 -12.05,3.35 -18.07,5.03 -0.15,0.03 -0.31,0.09 -0.47,0.06 -6.09,-1.69 -12.18,-3.39 -18.28,-5.08 -1.35,-15.34 -2.74,-30.68 -4.08,-46.03l0 0zm22.53 3.95c-0.06,0.35 -0.02,0.71 -0.02,1.07 -0.01,1.24 0,2.48 -0.01,3.72 0.01,0.23 0.05,0.45 0.08,0.67l-0.1 0c-4.71,0 -9.42,0 -14.12,0.01 0.19,1.87 0.36,3.75 0.51,5.63 4.54,0.03 9.07,0 13.61,0.01l0.07 0c-0.05,0.31 -0.06,0.63 -0.05,0.94 0.02,1.57 -0.01,3.14 0.01,4.71 1.8,-0.02 3.6,0 5.4,-0.01 0.67,0.02 1.35,-0.04 2.02,0.09 -0.46,0.08 -0.93,0.04 -1.4,0.04 -2.02,0.01 -4.03,0 -6.04,0 -4.37,-0.01 -8.75,0 -13.12,0 0.19,1.88 0.35,3.77 0.52,5.66 4.2,-0.02 8.4,0 12.61,-0.01 0.02,1.45 0,2.9 0.01,4.35 -0.02,1.56 0.03,3.11 -0.03,4.66 -2.1,-0.53 -4.19,-1.13 -6.28,-1.68 -0.15,-1.51 -0.26,-3.02 -0.42,-4.52 -1.88,0.06 -3.76,0 -5.65,0.03 0.27,2.89 0.53,5.78 0.77,8.67 -0.02,0.22 0.25,0.22 0.38,0.28 3.7,1.02 7.39,2.07 11.09,3.07 0.08,0.19 0.15,0.39 0.14,0.6 -0.01,1.63 0.01,3.26 -0.01,4.9 0.01,0.11 0,0.24 0.08,0.32 0.38,0.01 0.73,-0.16 1.09,-0.25 4.34,-1.2 8.67,-2.42 13.01,-3.61 0.23,-0.09 0.55,-0.07 0.69,-0.3 0.08,-0.34 0.08,-0.7 0.11,-1.04 1.13,-12.74 2.27,-25.47 3.41,-38.21 -1.46,0.07 -2.92,0.02 -4.38,0.04 -4.55,-0.01 -9.1,0.01 -13.65,-0.02 -0.12,0.03 -0.34,0.01 -0.33,0.18z"/>
    </g>
   </g>
   <path fill="#2864F1" fill-rule="nonzero" d="M22.53 16.45c-0.01,-0.17 0.21,-0.16 0.33,-0.18 4.55,0.03 9.1,0.01 13.65,0.01 1.46,-0.01 2.92,0.04 4.38,-0.03 -1.14,12.74 -2.28,25.47 -3.41,38.21 -0.03,0.34 -0.03,0.7 -0.11,1.04 -0.14,0.23 -0.46,0.21 -0.69,0.3 -4.34,1.19 -8.67,2.41 -13.01,3.61 -0.36,0.09 -0.71,0.26 -1.09,0.25 -0.08,-0.08 -0.07,-0.21 -0.08,-0.32 0.02,-1.64 0,-3.27 0.01,-4.9 0.01,-0.21 -0.06,-0.41 -0.14,-0.6l0.13 0.02c3.84,-1.04 7.68,-2.13 11.53,-3.19 0.85,-9.59 1.71,-19.17 2.56,-28.76 -4.67,0 -9.34,0 -14.01,0 -0.03,-0.22 -0.07,-0.44 -0.08,-0.67 0.01,-1.24 0,-2.48 0.01,-3.72 0,-0.36 -0.04,-0.72 0.02,-1.07zm0.02 11.11c2.63,0.01 5.25,0 7.88,0 -0.19,1.91 -0.38,3.82 -0.5,5.73 -0.67,-0.13 -1.35,-0.07 -2.02,-0.09 -1.8,0.01 -3.6,-0.01 -5.4,0.01 -0.02,-1.57 0.01,-3.14 -0.01,-4.71 -0.01,-0.31 0,-0.63 0.05,-0.94zm-0.05 11.42c2.3,0 4.61,0 6.91,0 -0.2,2.44 -0.45,4.87 -0.63,7.31 -2.08,0.59 -4.17,1.14 -6.25,1.7l-0.05 0c0.06,-1.55 0.01,-3.11 0.03,-4.66 -0.01,-1.45 0.01,-2.89 -0.01,-4.35z"/>
   <path fill="#EBEBEB" fill-rule="nonzero" d="M8.36 21.92c4.7,-0.01 9.41,-0.01 14.12,-0.01 0.04,1.88 0.04,3.77 0,5.65 -4.54,-0.01 -9.07,0.02 -13.61,-0.01 -0.15,-1.88 -0.32,-3.76 -0.51,-5.63z"/>
   <path fill="#EBEBEB" fill-rule="nonzero" d="M9.37 33.33c4.37,0 8.75,-0.01 13.12,0 0.07,0.99 0.03,1.97 0.04,2.96 -0.02,0.9 0.03,1.8 -0.03,2.69 -4.21,0.01 -8.41,-0.01 -12.61,0.01 -0.17,-1.89 -0.33,-3.78 -0.52,-5.66z"/>
   <path fill="#EBEBEB" fill-rule="nonzero" d="M10.13 41.82c1.89,-0.03 3.77,0.03 5.65,-0.03 0.16,1.5 0.27,3.01 0.42,4.52 2.09,0.55 4.18,1.15 6.28,1.68l0.05 0c-0.03,1.95 0.04,3.92 -0.03,5.87l-0.13 -0.02c-3.7,-1 -7.39,-2.05 -11.09,-3.07 -0.13,-0.06 -0.4,-0.06 -0.38,-0.28 -0.24,-2.89 -0.5,-5.78 -0.77,-8.67z"/>
  </g>
 </g>
</svg>
