<?xml version="1.0" encoding="UTF-8"?>
<!DOCTYPE svg PUBLIC "-//W3C//DTD SVG 1.1//EN" "http://www.w3.org/Graphics/SVG/1.1/DTD/svg11.dtd">
<!-- Creator: CorelDRAW 2020 (64-Bit) -->
<svg xmlns="http://www.w3.org/2000/svg" xml:space="preserve" width="42px" height="63px" version="1.1" shape-rendering="geometricPrecision" text-rendering="geometricPrecision" image-rendering="optimizeQuality" fill-rule="evenodd" clip-rule="evenodd"
viewBox="0 0 42 63.07"
 xmlns:xlink="http://www.w3.org/1999/xlink"
 xmlns:xodm="http://www.corel.com/coreldraw/odm/2003">
 <g id="Layer_x0020_1">
  <metadata id="CorelCorpID_0Corel-Layer"/>
  <g id="_1019349920">
   <path fill="#F14E1E" d="M9.5 21.02l11.5 0.03 0 -20.9 -4.2 -0.09c-6.17,0 -9.06,-0.67 -13.19,2.57 -2.53,1.98 -4.65,6.9 -2.99,11.5 1.27,3.51 4.47,6.42 8.88,6.89z"/>
   <path fill="#A159FD" d="M9.61 42l11.36 0.03 0.04 -9.42 0 -1.91 -0.04 -9.63 -11.47 0.04c-5.21,0.42 -9.52,4.94 -9.5,10.51 0.03,5.36 4.46,10.23 9.61,10.38z"/>
   <path fill="#FD7162" d="M21 21.05l11.44 -0.06c2.64,0.13 5.5,-2.02 6.64,-3.18 1.53,-1.57 2.89,-4.03 2.92,-7.18 0.05,-5.62 -4.3,-10.08 -9.54,-10.52l-11.46 0.04 0 20.9z"/>
   <path fill="#0ACD82" d="M21 42.08l-11.39 0c-11.27,1.24 -12.86,16.1 -3.23,20.13 5.61,2.34 10.57,-0.5 12.82,-3.75 1.46,-2.13 1.8,-4.24 1.8,-7.35 0,-3.01 0,-6.02 0,-9.03z"/>
   <circle fill="#1ABCFD" cx="31.45" cy="31.52" r="10.45"/>
  </g>
 </g>
</svg>
