<?xml version="1.0" encoding="UTF-8"?>
<!DOCTYPE svg PUBLIC "-//W3C//DTD SVG 1.1//EN" "http://www.w3.org/Graphics/SVG/1.1/DTD/svg11.dtd">
<!-- Creator: CorelDRAW 2020 (64-Bit) -->
<svg xmlns="http://www.w3.org/2000/svg" xml:space="preserve" width="45px" height="63px" version="1.1" shape-rendering="geometricPrecision" text-rendering="geometricPrecision" image-rendering="optimizeQuality" fill-rule="evenodd" clip-rule="evenodd"
viewBox="0 0 45 63.38"
 xmlns:xlink="http://www.w3.org/1999/xlink"
 xmlns:xodm="http://www.corel.com/coreldraw/odm/2003">
 <g id="Layer_x0020_1">
  <metadata id="CorelCorpID_0Corel-Layer"/>
  <g id="_1081347536">
   <path fill="black" fill-rule="nonzero" d="M13.76 0.01c2.65,-0.01 5.29,-0.01 7.94,0 -0.01,0.95 -0.01,1.89 0,2.83 -0.84,0.03 -1.68,0.01 -2.52,0.02 0,1.9 0,3.81 0,5.72 -0.97,0.01 -1.93,-0.01 -2.9,0.02 -0.01,-1.92 0,-3.83 0,-5.74 -0.84,-0.01 -1.68,0 -2.52,-0.01 0,-0.95 0,-1.89 0,-2.84zm-9.57 -0.01c0.96,0.01 1.92,0 2.88,0.01 0,0.94 0.01,1.87 0,2.81 0.87,0.01 1.73,0 2.6,0.01 0,-0.94 0,-1.88 0,-2.82 0.96,-0.01 1.92,0 2.88,-0.01 0,2.87 0,5.73 0.01,8.59 -0.96,-0.01 -1.92,0 -2.88,-0.01 -0.01,-0.96 -0.01,-1.92 -0.01,-2.88 -0.86,0 -1.73,0 -2.6,0 0,0.96 0.01,1.93 0,2.88 -0.96,0.01 -1.92,0 -2.88,0.01 0,-2.86 0,-5.72 0,-8.59zm29.77 0.01c0.97,-0.01 1.94,0 2.92,-0.01 0,1.9 0,3.8 0,5.7 1.34,0.01 2.69,-0.01 4.03,0.01 -0.02,0.96 0,1.92 -0.01,2.87 -2.31,0 -4.62,0 -6.93,0 -0.01,-2.86 0,-5.72 -0.01,-8.57zm-11.03 0c1,-0.01 2,0 3.01,-0.01 0.61,0.99 1.2,1.99 1.82,2.97 0.6,-0.99 1.18,-1.98 1.81,-2.95 0.99,-0.04 2,0 3,-0.02 0,2.86 0,5.72 0,8.58 -0.95,0.01 -1.9,0 -2.85,0.01 0,-1.41 0,-2.81 0,-4.22 -0.68,1.01 -1.31,2.06 -2,3.06 -0.65,-1 -1.28,-2.02 -1.97,-3 -0.01,1.38 0,2.77 0,4.15 -0.94,0 -1.88,0 -2.81,0 -0.02,-2.85 0,-5.71 -0.01,-8.57z"/>
   <path fill="#E54C26" fill-rule="nonzero" d="M0 12.46l45 0 -4.1 45.9 -18.08 5.02 -18.72 -5.01 -4.1 -45.91zm22.51 3.77l-0.02 5.62 -14.12 0 1.53 17.04 12.59 0 -0.01 8.95 -6.27 -1.7 -0.38 -4.47 -5.7 0.01 0.79 8.85 11.5 3.19 0.15 5.84 14.36 -3.97 3.92 -39.36 -18.34 0z"/>
   <path fill="#F16428" fill-rule="nonzero" d="M22.51 16.23c3.59,-0.04 7.18,-0.01 10.77,-0.02 2.53,0.02 5.05,-0.03 7.57,0.02 -0.09,1.99 -0.33,3.97 -0.49,5.96 -0.98,11 -1.97,22.01 -2.95,33.02 -0.01,0.25 -0.28,0.32 -0.48,0.38 -4.78,1.32 -9.57,2.67 -14.36,3.97 -0.07,-0.31 -0.09,-0.62 -0.08,-0.93 0.01,-1.41 -0.01,-2.81 0.01,-4.22 0,-0.23 -0.04,-0.46 -0.08,-0.69l0.06 0.01c3.86,-1.04 7.69,-2.14 11.55,-3.18 0.53,-5.78 1.02,-11.56 1.56,-17.33 -4.37,0 -8.74,0 -13.11,0 0.03,-1.91 0.01,-3.82 0.01,-5.73 4.53,0 9.07,0 13.6,0 0.18,-1.88 0.32,-3.76 0.51,-5.64 -4.7,-0.01 -9.4,0 -14.11,0 0.01,-1.88 -0.02,-3.75 0.02,-5.62zm-0.02 22.66c2.3,0 4.6,0 6.9,0 -0.21,2.42 -0.44,4.84 -0.65,7.26 -2.08,0.57 -4.17,1.12 -6.26,1.69 0.02,-2.98 0.01,-5.97 0.01,-8.95z"/>
   <path fill="#EBEBEB" fill-rule="nonzero" d="M10.13 41.68c1.9,-0.02 3.8,0 5.7,-0.01 0.12,1.49 0.28,2.98 0.38,4.47 2.09,0.59 4.18,1.14 6.27,1.7 -0.01,1.96 -0.02,3.93 0,5.89l-0.06 -0.01c-3.84,-1.05 -7.67,-2.12 -11.5,-3.19 -0.25,-2.95 -0.52,-5.9 -0.79,-8.85zm-1.76 -19.83c4.7,0 9.41,-0.01 14.12,0 -0.03,1.88 -0.03,3.76 0,5.64 -2.64,0 -5.29,0 -7.93,0 0.17,1.91 0.33,3.82 0.51,5.73 2.47,0 4.94,0 7.41,0 0,1.89 -0.03,3.78 0.01,5.67 -4.19,0 -8.39,0 -12.59,0 -0.53,-5.68 -1.01,-11.36 -1.53,-17.04z"/>
   <polygon fill="#E54C26" points="14.56,27.49 22.48,27.49 22.48,33.22 15.07,33.22 "/>
  </g>
 </g>
</svg>
