<?xml version="1.0" encoding="UTF-8"?>
<!DOCTYPE svg PUBLIC "-//W3C//DTD SVG 1.1//EN" "http://www.w3.org/Graphics/SVG/1.1/DTD/svg11.dtd">
<!-- Creator: CorelDRAW 2020 (64-Bit) -->
<svg xmlns="http://www.w3.org/2000/svg" xml:space="preserve" width="45px" height="63px" version="1.1" shape-rendering="geometricPrecision" text-rendering="geometricPrecision" image-rendering="optimizeQuality" fill-rule="evenodd" clip-rule="evenodd"
viewBox="0 0 45 63.68"
 xmlns:xlink="http://www.w3.org/1999/xlink"
 xmlns:xodm="http://www.corel.com/coreldraw/odm/2003">
 <g id="Layer_x0020_1">
  <metadata id="CorelCorpID_0Corel-Layer"/>
  <g id="javascript">
   <path fill="#0E0E10" fill-rule="nonzero" d="M18.41 0.01c0.96,-0.01 1.92,-0.02 2.88,0 -0.01,2.84 0,5.67 0,8.51 -2.33,0 -4.66,0.01 -6.99,0 0,-0.96 0,-1.92 0,-2.89 1.37,0 2.74,0 4.11,0 0,-1.87 0,-3.74 0,-5.62zm4.25 0c2.01,-0.02 4.02,0.01 6.03,-0.01 0.62,0.02 1.25,-0.01 1.87,0.01 0,0.76 0,1.51 0,2.27 -1.23,0.03 -2.47,0.06 -3.71,0.09 1.29,1.39 2.58,2.77 3.86,4.16 0,0.66 0,1.33 0,1.99 -2.68,0 -5.37,0 -8.05,0 0,-0.76 0,-1.52 0,-2.28 1.27,-0.02 2.54,0.05 3.81,-0.07 -1.21,-1.46 -2.54,-2.81 -3.81,-4.22 0,-0.64 0,-1.29 0,-1.94z"/>
   <g>
    <path fill="#E5A126" fill-rule="nonzero" d="M0.01 12.47c15,-0.01 29.99,-0.01 44.98,-0.01 0.04,0.82 -0.1,1.62 -0.15,2.44 -0.84,9.68 -1.69,19.37 -2.55,29.05 -0.43,4.74 -0.85,9.49 -1.3,14.24 0.01,0.28 -0.32,0.35 -0.52,0.45 -1.31,0.47 -2.65,0.82 -3.98,1.21 -4.2,1.17 -8.41,2.34 -12.63,3.46 -0.51,0.12 -1,0.29 -1.52,0.37 -1.68,-0.42 -3.35,-0.91 -5.03,-1.36 -3.69,-1.02 -7.38,-2.07 -11.07,-3.09 -0.72,-0.2 -1.44,-0.43 -2.18,-0.6 -0.13,-0.87 -0.17,-1.76 -0.26,-2.63 -0.58,-6.55 -1.17,-13.1 -1.75,-19.64 -0.14,-0.53 -0.07,-1.08 -0.15,-1.61 -0.62,-7 -1.24,-14.01 -1.84,-21.02 -0.02,-0.42 -0.09,-0.84 -0.05,-1.26l0 0zm22.49 3.67c-0.01,0.72 0.01,1.43 -0.01,2.15 -2.81,-0.01 -5.63,-0.02 -8.44,0 -0.73,0.02 -1.46,-0.01 -2.18,0.12 -0.65,6.69 -1.24,13.38 -1.81,20.07 -0.02,0.2 -0.02,0.39 -0.01,0.59 4.15,0 8.3,0 12.45,0 0,1.68 0,3.35 0,5.02 -0.01,1.25 0.02,2.49 -0.09,3.73 0.1,0 0.2,0.01 0.3,0.01 -0.22,0.05 -0.45,0.06 -0.67,0 -1.93,-0.49 -3.84,-1.02 -5.75,-1.55 -0.12,-0.01 -0.1,-0.15 -0.12,-0.24 -0.12,-1.41 -0.24,-2.82 -0.38,-4.23 -1.92,0 -3.83,0 -5.75,0 0.01,1.2 0.14,2.39 0.24,3.59 0.17,1.78 0.32,3.57 0.63,5.34 1.02,0.33 2.05,0.61 3.08,0.91 2.56,0.73 5.13,1.43 7.69,2.14 0.22,0.05 0.44,0.14 0.67,0.14 0.07,0.09 0.17,0.18 0.15,0.31 0.02,1.83 -0.05,3.65 0.08,5.47 0.54,-0.06 1.04,-0.27 1.57,-0.38 3.73,-1.03 7.47,-2.03 11.18,-3.12 0.67,-0.21 1.36,-0.38 2.01,-0.63 0.27,-2.24 0.46,-4.49 0.69,-6.73 0.95,-10.17 1.89,-20.33 2.74,-30.5 0.05,-0.74 0.15,-1.47 0.11,-2.21 -2.63,-0.03 -5.26,0 -7.88,-0.02 -3.5,0.02 -7,-0.02 -10.5,0.02z"/>
   </g>
   <path fill="#F1BE25" fill-rule="nonzero" d="M22.5 16.14c3.5,-0.04 7,0 10.5,-0.02 2.62,0.02 5.25,-0.01 7.88,0.02 0.04,0.74 -0.06,1.47 -0.11,2.21 -0.85,10.17 -1.79,20.33 -2.74,30.5 -0.23,2.24 -0.42,4.49 -0.69,6.73 -0.65,0.25 -1.34,0.42 -2.01,0.63 -3.71,1.09 -7.45,2.09 -11.18,3.12 -0.53,0.11 -1.03,0.32 -1.57,0.38 -0.13,-1.82 -0.06,-3.64 -0.08,-5.47 0.02,-0.13 -0.08,-0.22 -0.15,-0.31 0.62,-0.07 1.21,-0.28 1.8,-0.44 2.18,-0.57 4.34,-1.18 6.51,-1.79 1.13,-0.34 2.28,-0.65 3.39,-1.06 0.25,-2.18 0.44,-4.36 0.64,-6.54 0.22,-2.41 0.43,-4.82 0.65,-7.23 0.11,-1.13 0.2,-2.27 0.34,-3.4 -0.75,-0.2 -1.54,-0.12 -2.31,-0.15 -3.62,-0.03 -7.25,-0.01 -10.87,-0.01 0.02,-2.97 -0.03,-5.94 0.02,-8.9 0.68,0.05 1.37,0.05 2.06,0.03 0.71,0.09 1.43,0.04 2.14,0.11 0.85,0.03 1.69,0.08 2.53,0.19 0.28,1.87 0.42,3.77 0.58,5.66 0.28,0.14 0.6,0.13 0.9,0.14 1.65,0.02 3.3,0 4.95,0.01 -0.27,-2.76 -0.51,-5.52 -0.76,-8.28 -0.14,-1.3 -0.22,-2.61 -0.35,-3.92 -1.26,0.01 -2.51,-0.06 -3.77,-0.04 -0.71,0 -1.42,-0.02 -2.13,0.01 -2.06,-0.04 -4.12,-0.02 -6.18,-0.03 0.02,-0.72 0,-1.43 0.01,-2.15zm0 22.93c2.29,0 4.58,0.01 6.86,0 -0.05,0.39 -0.11,0.78 -0.13,1.18 -0.21,1.89 -0.31,3.79 -0.55,5.67 -0.03,0.13 -0.02,0.33 -0.19,0.37 -1.28,0.42 -2.6,0.73 -3.9,1.1 -0.63,0.11 -1.24,0.32 -1.88,0.44 -0.1,0 -0.2,-0.01 -0.3,-0.01 0.11,-1.24 0.08,-2.48 0.09,-3.73 0,-1.67 0,-3.34 0,-5.02z"/>
   <path fill="#EAEBED" fill-rule="nonzero" d="M14.05 18.29c2.81,-0.02 5.63,-0.01 8.44,0 2.06,0.01 4.12,-0.01 6.18,0.03 -0.12,0.02 -0.23,0.06 -0.35,0.07 -1.94,0.03 -3.88,0 -5.82,0.03 -0.01,1.82 0.01,3.64 -0.01,5.46 0,0.13 0.01,0.26 0.04,0.39 0.68,0.12 1.39,-0.07 2.05,0.17 -0.69,0.02 -1.38,0.02 -2.06,-0.03 -0.33,-0.05 -0.66,-0.02 -0.98,-0.01 -1.34,0.03 -2.67,0.08 -4,0.12 -0.12,0.01 -0.23,0.02 -0.35,0.05 -0.08,0.14 -0.05,0.32 -0.07,0.47 -0.29,2.75 -0.55,5.51 -0.78,8.26 2,0.01 4,0 6,0.01 0.02,1.86 0,3.74 0.01,5.6 2.38,0.02 4.75,0.01 7.13,0.01 -0.1,0.44 -0.03,0.92 -0.25,1.33 0.02,-0.4 0.08,-0.79 0.13,-1.18 -2.28,0.01 -4.57,0 -6.86,0 -4.15,0 -8.3,0 -12.45,0 -0.01,-0.2 -0.01,-0.39 0.01,-0.59 0.57,-6.69 1.16,-13.38 1.81,-20.07 0.72,-0.13 1.45,-0.1 2.18,-0.12zm-4.01 23.52c1.92,0 3.83,0 5.75,0 0.14,1.41 0.26,2.82 0.38,4.23 0.02,0.09 0,0.23 0.12,0.24 1.91,0.53 3.82,1.06 5.75,1.55 0.22,0.06 0.45,0.05 0.67,0 0.64,-0.12 1.25,-0.33 1.88,-0.44 -0.12,0.07 -0.24,0.16 -0.38,0.19 -0.51,0.15 -1.03,0.28 -1.55,0.41 -0.13,0.05 -0.34,0.08 -0.31,0.26 -0.01,1.34 0,2.68 0,4.02 0.03,0.51 0.03,1.03 0.13,1.54 0.24,-0.05 0.49,-0.1 0.72,-0.16 0.31,-0.07 0.62,-0.22 0.95,-0.16 -0.59,0.16 -1.18,0.37 -1.8,0.44 -0.23,0 -0.45,-0.09 -0.67,-0.14 -2.56,-0.71 -5.13,-1.41 -7.69,-2.14 -1.03,-0.3 -2.06,-0.58 -3.08,-0.91 -0.31,-1.77 -0.46,-3.56 -0.63,-5.34 -0.1,-1.2 -0.23,-2.39 -0.24,-3.59z"/>
  </g>
 </g>
</svg>
