<?xml version="1.0" encoding="UTF-8"?>
<!DOCTYPE svg PUBLIC "-//W3C//DTD SVG 1.1//EN" "http://www.w3.org/Graphics/SVG/1.1/DTD/svg11.dtd">
<!-- Creator: CorelDRAW 2020 (64-Bit) -->
<svg xmlns="http://www.w3.org/2000/svg" xml:space="preserve" width="63px" height="63px" version="1.1" shape-rendering="geometricPrecision" text-rendering="geometricPrecision" image-rendering="optimizeQuality" fill-rule="evenodd" clip-rule="evenodd"
viewBox="0 0 63 63"
 xmlns:xlink="http://www.w3.org/1999/xlink"
 xmlns:xodm="http://www.corel.com/coreldraw/odm/2003">
 <g id="Layer_x0020_1">
  <metadata id="CorelCorpID_0Corel-Layer"/>
  <path fill="#1ABCFD" d="M15.12 18.72c0.34,2.67 9.35,27.09 9.51,29.09l0.58 0c0.31,-3.65 6.19,-15.96 5.41,-18.37l-3.94 -10.72 -2.67 0c-0.58,0 -1.05,-0.47 -1.05,-1.04l0 0c0,-0.58 0.47,-1.05 1.05,-1.05l15.06 0 0 2.09 -3.75 0c0.17,3.12 7.91,24.31 9.52,29.09l4.91 -18.47c0,-6.02 -7.92,-11.82 -3.54,-16.25 0.86,-0.88 1.88,-1.37 3.54,-1.37 -4.9,-7.32 -20.57,-8.34 -28.29,-5.27 -4.9,1.95 -9.53,5.74 -12.42,10.18l8.94 0c0.57,0 1.04,0.47 1.04,1.05l0 0c0,0.57 -0.47,1.04 -1.04,1.04l-2.86 0zm16.38 -18.72c8.7,0 16.57,3.53 22.27,9.23 5.7,5.7 9.23,13.57 9.23,22.27 0,8.7 -3.53,16.57 -9.23,22.27 -5.7,5.7 -13.57,9.23 -22.27,9.23 -8.7,0 -16.57,-3.53 -22.27,-9.23 -5.7,-5.7 -9.23,-13.57 -9.23,-22.27 0,-8.7 3.53,-16.57 9.23,-22.27 5.7,-5.7 13.57,-9.23 22.27,-9.23zm0 1.44c16.6,0 30.06,13.46 30.06,30.06 0,16.6 -13.46,30.06 -30.06,30.06 -16.6,0 -30.06,-13.46 -30.06,-30.06 0,-16.6 13.46,-30.06 30.06,-30.06zm13.34 53.3c2.67,-0.71 7.53,-5.89 9.19,-8.42 3.53,-5.42 4.38,-9.59 4.38,-16.41 0,-3.31 -1.71,-9.97 -3.46,-11.26 0,3.11 0.11,3.67 -0.01,5.19 -0.5,6.12 -7.73,24.08 -10.1,30.9zm-40.13 -24.83c0,9.93 2.73,16.02 9.46,22.02 1.28,1.14 4.06,3.26 5.84,3.68 -4.3,-11.74 -8.49,-23.45 -12.7,-35.23 -1.4,1.03 -2.6,7.49 -2.6,9.53zm19.35 27.43c5.27,1.23 11.4,1.85 16.45,-0.58l-8.66 -23.1c-0.44,1.89 -1.26,3.95 -1.91,5.89 -0.71,2.13 -1.33,3.68 -2.02,5.77 -0.68,2.06 -3.83,10.64 -3.86,12.02z"/>
 </g>
</svg>
